<svg width="19" height="18" viewBox="0 0 19 18" fill="none" xmlns="http://www.w3.org/2000/svg">
<g clip-path="url(#clip0_2003_13470)">
<path d="M10.3507 0.632754C10.0703 -0.210916 8.92968 -0.210919 8.64933 0.632752L7.05896 5.41864C6.93529 5.79082 6.60324 6.04317 6.22664 6.0512L1.38385 6.15443C0.530151 6.17263 0.177673 7.30738 0.858107 7.84699L4.718 10.9081C5.01816 11.1461 5.14499 11.5544 5.03592 11.9316L3.63327 16.7812C3.38601 17.6362 4.3088 18.3375 5.00969 17.8273L8.98559 14.9333C9.29479 14.7082 9.70521 14.7082 10.0144 14.9333L13.9903 17.8273C14.6912 18.3375 15.614 17.6362 15.3667 16.7813L13.9641 11.9316C13.855 11.5544 13.9818 11.1461 14.282 10.9081L18.1419 7.84699C18.8223 7.30738 18.4699 6.17263 17.6161 6.15443L12.7734 6.0512C12.3968 6.04317 12.0647 5.79082 11.941 5.41864L10.3507 0.632754Z" fill="#7E50D1"/>
<path d="M14.9006 10.4175L18.1418 7.84717C18.8222 7.30756 18.4701 6.173 17.6164 6.15479L14.9006 6.09619V10.4175Z" fill="#D8D8D8"/>
</g>
<defs>
<clipPath id="clip0_2003_13470">
<rect width="18" height="18" fill="white" transform="translate(0.5)"/>
</clipPath>
</defs>
</svg>
