<svg width="18" height="18" viewBox="0 0 18 18" fill="none" xmlns="http://www.w3.org/2000/svg">
<g clip-path="url(#clip0_2003_13473)">
<path d="M8.14933 0.632754C8.42968 -0.210916 9.57032 -0.210919 9.85067 0.632752L11.441 5.41864C11.5647 5.79082 11.8968 6.04317 12.2734 6.0512L17.1161 6.15443C17.9698 6.17263 18.3223 7.30738 17.6419 7.84699L13.782 10.9081C13.4818 11.1461 13.355 11.5544 13.4641 11.9316L14.8667 16.7812C15.114 17.6362 14.1912 18.3375 13.4903 17.8273L9.51441 14.9333C9.20521 14.7082 8.79479 14.7082 8.48559 14.9333L4.50969 17.8273C3.80881 18.3375 2.88601 17.6362 3.13327 16.7813L4.53591 11.9316C4.64499 11.5544 4.51816 11.1461 4.218 10.9081L0.358107 7.84699C-0.322325 7.30738 0.0301498 6.17263 0.883851 6.15443L5.72664 6.0512C6.10324 6.04317 6.43529 5.79082 6.55896 5.41864L8.14933 0.632754Z" fill="#D8D8D8"/>
<path d="M8.99981 14.7646C8.81989 14.7646 8.63977 14.8211 8.48516 14.9336L4.50957 17.8271C3.80872 18.3373 2.88547 17.6361 3.13262 16.7812L4.53594 11.9316C4.64502 11.5545 4.51775 11.1463 4.21758 10.9082L0.358207 7.84668C-0.32222 7.30707 0.0299125 6.17251 0.883597 6.1543L5.72637 6.05078C6.10285 6.04276 6.43463 5.79092 6.5584 5.41895L8.14922 0.632812C8.2894 0.210963 8.64455 -1.40772e-05 8.99981 7.04491e-10V14.7646Z" fill="#7E50D1"/>
</g>
<defs>
<clipPath id="clip0_2003_13473">
<rect width="18" height="18" fill="white"/>
</clipPath>
</defs>
</svg>
