<svg width="19" height="18" viewBox="0 0 19 18" fill="none" xmlns="http://www.w3.org/2000/svg">
<g clip-path="url(#clip0_2003_13474)">
<path d="M8.64933 0.632754C8.92968 -0.210916 10.0703 -0.210919 10.3507 0.632752L11.941 5.41864C12.0647 5.79082 12.3968 6.04317 12.7734 6.0512L17.6161 6.15443C18.4698 6.17263 18.8223 7.30738 18.1419 7.84699L14.282 10.9081C13.9818 11.1461 13.855 11.5544 13.9641 11.9316L15.3667 16.7812C15.614 17.6362 14.6912 18.3375 13.9903 17.8273L10.0144 14.9333C9.70521 14.7082 9.29479 14.7082 8.98559 14.9333L5.00969 17.8273C4.30881 18.3375 3.38601 17.6362 3.63327 16.7813L5.03591 11.9316C5.14499 11.5544 5.01816 11.1461 4.718 10.9081L0.858107 7.84699C0.177675 7.30738 0.53015 6.17263 1.38385 6.15443L6.22664 6.0512C6.60324 6.04317 6.93529 5.79082 7.05896 5.41864L8.64933 0.632754Z" fill="#D8D8D8"/>
<path d="M7.70001 15.8682L5.00958 17.8271C4.30872 18.3373 3.38547 17.6361 3.63263 16.7812L5.03595 11.9316C5.14502 11.5545 5.01776 11.1463 4.71759 10.9082L0.858212 7.84668C0.17778 7.30707 0.529905 6.1725 1.3836 6.1543L6.22638 6.05078C6.60286 6.04276 6.93463 5.79092 7.05841 5.41895L7.70001 3.48926V15.8682Z" fill="#7E50D1"/>
</g>
<defs>
<clipPath id="clip0_2003_13474">
<rect width="18" height="18" fill="white" transform="translate(0.5)"/>
</clipPath>
</defs>
</svg>
