<svg width="18" height="18" viewBox="0 0 18 18" fill="none" xmlns="http://www.w3.org/2000/svg">
<g clip-path="url(#clip0_2003_13469)">
<path d="M9.85067 0.632754C9.57032 -0.210916 8.42968 -0.210919 8.14933 0.632752L6.55896 5.41864C6.43529 5.79082 6.10324 6.04317 5.72664 6.0512L0.883854 6.15443C0.0301514 6.17263 -0.322327 7.30738 0.358107 7.84699L4.218 10.9081C4.51816 11.1461 4.64499 11.5544 4.53592 11.9316L3.13327 16.7812C2.88601 17.6362 3.8088 18.3375 4.50969 17.8273L8.48559 14.9333C8.79479 14.7082 9.20521 14.7082 9.51441 14.9333L13.4903 17.8273C14.1912 18.3375 15.114 17.6362 14.8667 16.7813L13.4641 11.9316C13.355 11.5544 13.4818 11.1461 13.782 10.9081L17.6419 7.84699C18.3223 7.30738 17.9699 6.17263 17.1161 6.15443L12.2734 6.0512C11.8968 6.04317 11.5647 5.79082 11.441 5.41864L9.85067 0.632754Z" fill="#7E50D1"/>
<path d="M16.2004 8.98926L17.6418 7.84668C18.3222 7.30707 17.9701 6.1725 17.1164 6.1543L16.2004 6.13379V8.98926Z" fill="#D8D8D8"/>
</g>
<defs>
<clipPath id="clip0_2003_13469">
<rect width="18" height="18" fill="white"/>
</clipPath>
</defs>
</svg>
