<svg width="24" height="24" viewBox="0 0 24 24" fill="none" xmlns="http://www.w3.org/2000/svg">
<path d="M11.3356 5.09055C11.7145 4.75376 12.2855 4.75376 12.6644 5.09055L19.0342 10.7526C19.7214 11.3635 19.2893 12.5 18.3698 12.5H5.6302C4.71068 12.5 4.27858 11.3635 4.96584 10.7526L11.3356 5.09055Z" fill="white"/>
<path d="M17 17.1C17 17.8732 16.3732 18.5 15.6 18.5H14.4667C14.0248 18.5 13.6667 18.1418 13.6667 17.7V15.4556C13.6667 14.6824 13.0399 14.0556 12.2667 14.0556H11.7333C10.9601 14.0556 10.3333 14.6824 10.3333 15.4556V17.7C10.3333 18.1418 9.97516 18.5 9.53333 18.5H8.4C7.6268 18.5 7 17.8732 7 17.1V10.5H17V17.1Z" fill="white"/>
<rect x="7" y="6.5" width="2.5" height="4" rx="0.8" fill="white"/>
</svg>
