<svg width="658" height="146" viewBox="0 0 658 146" fill="none" xmlns="http://www.w3.org/2000/svg">
<g clip-path="url(#clip0_2217_8063)">
<path d="M248.3 107.68H195.99L187.61 129.56H164.88L209.66 15.54H234.62L279.41 129.56H256.68L248.3 107.68ZM201.63 90.07H242.65L222.14 35.71L201.63 90.07Z" fill="black"/>
<path d="M289.41 15.54H309.41V129.56H289.41V15.54Z" fill="black"/>
<path d="M422.87 44.94L387.83 129.56H379.28L344.41 44.94V129.56H324.41V15.54H352.62L383.56 90.58L414.67 15.54H442.87V129.56H422.87V44.94Z" fill="black"/>
<path d="M454.34 19.5C454.34 12.58 460.11 7 466.84 7C473.57 7 479.34 12.58 479.34 19.5C479.34 26.42 473.76 32 466.84 32C459.92 32 454.34 26.42 454.34 19.5Z" fill="#7E50D1"/>
<path d="M475.82 47H457.87V129.56H475.82V47Z" fill="black"/>
<path d="M546.54 77.9402C546.54 65.1202 540.04 60.8502 529.96 60.8502C520.73 60.8502 512.87 66.3202 508.76 71.9602V129.57H490.81V47.0002H508.76V58.2802C514.23 51.7802 524.83 44.9502 537.82 44.9502C555.6 44.9502 564.49 54.5202 564.49 71.4502V129.57H546.54V77.9502V77.9402Z" fill="black"/>
<path d="M616.37 44.9499C641.15 44.9499 657.05 63.9299 657.05 89.9099V94.1799H593.29C594.66 106.66 604.06 116.91 619.61 116.91C627.65 116.91 637.22 113.66 643.03 107.85L651.23 119.64C643.03 127.5 630.89 131.61 617.73 131.61C592.95 131.61 574.48 114.35 574.48 88.1899C574.48 64.2599 591.92 44.9399 616.36 44.9399L616.37 44.9499ZM593.13 81.5299H639.62C639.28 71.7899 632.61 59.6499 616.37 59.6499C600.99 59.6499 593.98 71.4399 593.12 81.5299H593.13Z" fill="black"/>
<path d="M99.85 45.2501C86.18 31.5801 64.02 31.5801 50.35 45.2501C36.68 58.9201 36.68 81.0801 50.35 94.7501C64.02 108.42 86.18 108.42 99.85 94.7501C113.52 81.0801 113.52 58.9201 99.85 45.2501ZM64.5 80.6101C58.64 74.7501 58.64 65.2501 64.5 59.4001C70.36 53.5501 79.86 53.5401 85.71 59.4001C91.57 65.2601 91.57 74.7601 85.71 80.6101C79.85 86.4601 70.35 86.4701 64.5 80.6101Z" fill="#7E50D1"/>
<path d="M124.6 20.5001C97.26 -6.83988 52.94 -6.83988 25.61 20.5001C-1.71999 47.8401 -1.72999 92.1601 25.61 119.49C52.95 146.82 97.27 146.83 124.6 119.49C151.94 92.1501 151.94 47.8301 124.6 20.5001ZM39.75 105.36C20.22 85.8301 20.22 54.1801 39.75 34.6501C59.28 15.1201 90.93 15.1201 110.46 34.6501C129.99 54.1801 129.99 85.8301 110.46 105.36C90.93 124.89 59.28 124.89 39.75 105.36Z" fill="#7E50D1"/>
<path d="M39.75 105.36C36.05 101.66 33.06 97.5299 30.76 93.1299L23.94 99.9499L16.15 107.74L4.39001 119.5L25.6 140.71L37.36 128.95L45.15 121.16L51.97 114.34C47.57 112.04 43.44 109.05 39.74 105.35L39.75 105.36Z" fill="#D9C7F3"/>
<path d="M64.5 80.6099C58.64 74.7499 58.64 65.2499 64.5 59.3999L42.14 81.7599C43.83 86.4999 46.57 90.9599 50.36 94.7499C54.16 98.5499 58.61 101.28 63.35 102.97L85.71 80.6099C79.85 86.4699 70.35 86.4699 64.5 80.6099Z" fill="#D9C7F3"/>
<path d="M15 145.1C23.2843 145.1 30 138.384 30 130.1C30 121.816 23.2843 115.1 15 115.1C6.71573 115.1 0 121.816 0 130.1C0 138.384 6.71573 145.1 15 145.1Z" fill="#7E50D1"/>
</g>
<defs>
<clipPath id="clip0_2217_8063">
<rect width="657.06" height="145.1" fill="white"/>
</clipPath>
</defs>
</svg>
