<svg width="24" height="24" viewBox="0 0 24 24" fill="none" xmlns="http://www.w3.org/2000/svg">
<g clip-path="url(#clip0_2003_13497)">
<path d="M10.8658 0.843672C11.2396 -0.281222 12.7604 -0.281225 13.1342 0.843669L15.2547 7.22485C15.4196 7.72109 15.8623 8.05756 16.3645 8.06826L22.8215 8.2059C23.9598 8.23017 24.4298 9.74317 23.5225 10.4627L18.376 14.5441C17.9758 14.8615 17.8067 15.4059 17.9521 15.9088L19.8223 22.375C20.152 23.5149 18.9216 24.45 17.9871 23.7698L12.6859 19.911C12.2736 19.611 11.7264 19.611 11.3141 19.911L6.01292 23.7698C5.07841 24.45 3.84801 23.5149 4.17769 22.375L6.04789 15.9088C6.19332 15.4059 6.02422 14.8615 5.62399 14.5441L0.477476 10.4627C-0.429767 9.74317 0.0401998 8.23017 1.17847 8.2059L7.63552 8.06826C8.13766 8.05756 8.58038 7.72109 8.74528 7.22485L10.8658 0.843672Z" fill="#D8D8D8"/>
<path d="M11.9999 19.6855C11.7601 19.6855 11.5204 19.7612 11.3143 19.9111L6.01258 23.7695C5.07807 24.4497 3.84794 23.5149 4.17762 22.375L6.04773 15.9092C6.19317 15.4063 6.02413 14.8613 5.62391 14.5439L0.477422 10.4629C-0.429821 9.7434 0.0403262 8.23032 1.17859 8.20605L7.63563 8.06836C8.13766 8.05755 8.58013 7.72076 8.745 7.22461L10.8661 0.84375C11.053 0.281337 11.5262 -1.42053e-05 11.9999 5.37928e-10V19.6855Z" fill="#7E50D1"/>
</g>
<defs>
<clipPath id="clip0_2003_13497">
<rect width="24" height="24" fill="white"/>
</clipPath>
</defs>
</svg>
