<svg width="24" height="24" viewBox="0 0 24 24" fill="none" xmlns="http://www.w3.org/2000/svg">
<g clip-path="url(#clip0_2003_13494)">
<path d="M13.1342 0.843672C12.7604 -0.281222 11.2396 -0.281225 10.8658 0.843669L8.74529 7.22485C8.58038 7.72109 8.13766 8.05756 7.63552 8.06826L1.17847 8.2059C0.040205 8.23017 -0.429768 9.74317 0.477476 10.4627L5.62399 14.5441C6.02422 14.8615 6.19333 15.4059 6.04789 15.9088L4.17769 22.375C3.84801 23.5149 5.07841 24.45 6.01292 23.7698L11.3141 19.911C11.7264 19.611 12.2736 19.611 12.6859 19.911L17.9871 23.7698C18.9216 24.45 20.152 23.5149 19.8223 22.375L17.9521 15.9088C17.8067 15.4059 17.9758 14.8615 18.376 14.5441L23.5225 10.4627C24.4298 9.74317 23.9598 8.23017 22.8215 8.2059L16.3645 8.06826C15.8623 8.05756 15.4196 7.72109 15.2547 7.22485L13.1342 0.843672Z" fill="#7E50D1"/>
<path d="M19.2003 13.8896L23.5226 10.4629C24.4298 9.7434 23.9597 8.23032 22.8214 8.20605L19.2003 8.12793V13.8896Z" fill="#D8D8D8"/>
</g>
<defs>
<clipPath id="clip0_2003_13494">
<rect width="24" height="24" fill="white"/>
</clipPath>
</defs>
</svg>
