<svg width="132" height="29" viewBox="0 0 132 29" fill="none" xmlns="http://www.w3.org/2000/svg">
<g clip-path="url(#clip0_855_16963)">
<path d="M49.2441 22.0806H38.8457L37.1804 26.4025H32.6596L41.569 3.88281H46.5306L55.4302 26.4025H50.9094L49.2441 22.0806ZM39.9722 18.6056H48.1273L44.0522 7.86891L39.9771 18.6056H39.9722Z" fill="black"/>
<path d="M57.0416 3.88281H61.0188V26.4025H57.0416V3.88281Z" fill="black"/>
<path d="M84.049 9.69404L77.0841 26.4074H75.3845L68.4539 9.69404V26.4074H64.4767V3.88281H70.0849L76.2367 18.7029L82.418 3.88281H88.0261V26.4025H84.049V9.69404Z" fill="black"/>
<path d="M95.4416 10.0977H91.8759V26.4022H95.4416V10.0977Z" fill="black"/>
<path d="M109.783 16.2059C109.783 13.6751 108.49 12.8282 106.487 12.8282C104.65 12.8282 103.087 13.9087 102.274 15.0232V26.4023H98.7086V10.0978H102.274V12.3269C103.362 11.042 105.468 9.69385 108.049 9.69385C111.58 9.69385 113.349 11.5823 113.349 14.9259V26.4023H109.783V16.2059Z" fill="black"/>
<path d="M123.918 9.69385C128.846 9.69385 132.005 13.4415 132.005 18.5713V19.4133H119.334C119.603 21.876 121.474 23.9056 124.565 23.9056C126.162 23.9056 128.067 23.2631 129.218 22.1145L130.849 24.4458C129.218 25.9984 126.808 26.8112 124.188 26.8112C119.26 26.8112 115.592 23.3994 115.592 18.2355C115.592 13.5096 119.06 9.69385 123.918 9.69385ZM119.295 16.9165H128.537C128.469 14.994 127.146 12.5946 123.918 12.5946C120.862 12.5946 119.466 14.9259 119.3 16.9165H119.295Z" fill="black"/>
<path d="M0.856937 27.6482C2.00306 28.7871 3.86918 28.7871 5.0153 27.6482L0.856937 23.5161C-0.289186 24.655 -0.289186 26.5093 0.856937 27.6482Z" fill="#7F50D2"/>
<path d="M14.3557 0.5C6.9304 0.5 0.886322 6.50591 0.886322 13.8843C0.886322 16.5904 1.70428 19.1115 3.1002 21.2238L5.92142 18.3328C5.21122 17.0041 4.80469 15.4953 4.80469 13.8892C4.80469 8.65714 9.0904 4.39849 14.3557 4.39849C19.621 4.39849 23.9067 8.65714 23.9067 13.8892C23.9067 19.1212 19.621 23.3799 14.3557 23.3799C12.8422 23.3799 11.4169 23.0197 10.1484 22.3967L7.31734 25.2975C9.36959 26.5532 11.7794 27.2784 14.3557 27.2784C21.781 27.2784 27.8251 21.2725 27.8251 13.8941C27.8251 6.51564 21.781 0.5 14.3557 0.5Z" fill="#7F50D2"/>
<path d="M19.2047 18.7025C21.879 16.0451 21.879 11.7232 19.2047 9.0658C16.5304 6.40841 12.181 6.40841 9.50674 9.0658C7.55245 11.0077 7.03327 13.8404 7.93939 16.2641L12.279 11.8205C13.4251 10.6817 15.2912 10.6817 16.4373 11.8205C17.5835 12.9594 17.5835 14.8138 16.4373 15.9526L12.1614 20.333C14.5565 21.136 17.3043 20.5958 19.2096 18.7074L19.2047 18.7025Z" fill="#7F50D2"/>
<path d="M3.1002 21.2236L0.856934 23.5209C2.00306 22.382 3.86918 22.382 5.0153 23.5209C6.16142 24.6598 6.16142 26.5141 5.0153 27.653L7.31734 25.2925C5.62755 24.2607 4.18755 22.8687 3.1002 21.2236Z" fill="#D7C9F1"/>
<path d="M5.0153 23.5163C3.86918 22.3774 2.00306 22.3774 0.856934 23.5163L5.0153 27.6484C6.16142 26.5095 6.16142 24.6552 5.0153 23.5163Z" fill="#7F50D2"/>
<path d="M5.92143 18.3281L3.1002 21.2191C4.18755 22.8642 5.62755 24.2562 7.31735 25.288L10.1484 22.3872C8.35082 21.5063 6.86674 20.0851 5.92633 18.3281H5.92143Z" fill="#D7C9F1"/>
<path d="M12.279 15.948C11.1328 14.8091 11.1328 12.9548 12.279 11.8159L7.93938 16.2595C8.27244 17.1502 8.79162 17.9824 9.50672 18.6979C10.2757 19.462 11.1867 20.0023 12.1565 20.3235L16.4324 15.9432C15.2863 17.082 13.4202 17.082 12.2741 15.9432L12.279 15.948Z" fill="#D7C9F1"/>
<path d="M91.582 7.31375C92.7282 8.45263 94.5943 8.45263 95.7404 7.31375L91.582 3.18164C90.4359 4.32052 90.4359 6.17486 91.582 7.31375Z" fill="#7F50D2"/>
<path d="M95.7404 3.1818C94.5943 2.04292 92.7282 2.04292 91.582 3.1818L95.7404 7.3139C96.8865 6.17502 96.8865 4.32068 95.7404 3.1818Z" fill="#7F50D2"/>
</g>
<defs>
<clipPath id="clip0_855_16963">
<rect width="132" height="28" fill="white" transform="translate(0 0.5)"/>
</clipPath>
</defs>
</svg>
