<svg width="21" height="21" viewBox="0 0 21 21" fill="none" xmlns="http://www.w3.org/2000/svg">
<g clip-path="url(#clip0_841_15987)">
<path fill-rule="evenodd" clip-rule="evenodd" d="M11.8875 1.21771C12.213 1.54315 12.213 2.07078 11.8875 2.39623L10.8027 3.4811C14.788 3.65771 17.965 6.94467 17.965 10.9736C17.965 15.1158 14.6071 18.4736 10.465 18.4736C6.32283 18.4736 2.96497 15.1158 2.96497 10.9736C2.96497 10.5134 3.33807 10.1403 3.7983 10.1403C4.25853 10.1403 4.63163 10.5134 4.63163 10.9736C4.63163 14.1953 7.24331 16.807 10.465 16.807C13.6866 16.807 16.2983 14.1953 16.2983 10.9736C16.2983 7.87147 13.8768 5.33488 10.8208 5.15098L11.8875 6.21771C12.213 6.54315 12.213 7.07078 11.8875 7.39623C11.5621 7.72166 11.0345 7.72166 10.709 7.39623L8.20904 4.89623C8.05277 4.73994 7.96497 4.52798 7.96497 4.30697C7.96497 4.08595 8.05277 3.87399 8.20904 3.71771L10.709 1.21771C11.0345 0.892274 11.5621 0.892274 11.8875 1.21771Z" fill="#A987E8"/>
</g>
<defs>
<clipPath id="clip0_841_15987">
<rect width="20" height="20" fill="white" transform="translate(0.464966 0.140137)"/>
</clipPath>
</defs>
</svg>
