<svg width="24" height="24" viewBox="0 0 24 24" fill="none" xmlns="http://www.w3.org/2000/svg">
<g clip-path="url(#clip0_2003_13495)">
<path d="M13.1342 0.843672C12.7604 -0.281222 11.2396 -0.281225 10.8658 0.843669L8.74529 7.22485C8.58038 7.72109 8.13766 8.05756 7.63552 8.06826L1.17847 8.2059C0.040205 8.23017 -0.429768 9.74317 0.477476 10.4627L5.62399 14.5441C6.02422 14.8615 6.19333 15.4059 6.04789 15.9088L4.17769 22.375C3.84801 23.5149 5.07841 24.45 6.01292 23.7698L11.3141 19.911C11.7264 19.611 12.2736 19.611 12.6859 19.911L17.9871 23.7698C18.9216 24.45 20.152 23.5149 19.8223 22.375L17.9521 15.9088C17.8067 15.4059 17.9758 14.8615 18.376 14.5441L23.5225 10.4627C24.4298 9.74317 23.9598 8.23017 22.8215 8.2059L16.3645 8.06826C15.8623 8.05756 15.4196 7.72109 15.2547 7.22485L13.1342 0.843672Z" fill="#7E50D1"/>
<path d="M16.8 22.9048L17.9875 23.77C18.9218 24.4498 20.1516 23.5151 19.8224 22.3755L17.9523 15.9087C17.8069 15.406 17.9761 14.8618 18.3761 14.5444L23.5226 10.4624C24.4298 9.7429 23.9597 8.22983 22.8214 8.20557L16.8 8.07666V22.9048Z" fill="#D8D8D8"/>
</g>
<defs>
<clipPath id="clip0_2003_13495">
<rect width="24" height="24" fill="white"/>
</clipPath>
</defs>
</svg>
