<svg width="20" height="20" viewBox="0 0 20 20" fill="none" xmlns="http://www.w3.org/2000/svg">
<g clip-path="url(#clip0_2003_13488)">
<path d="M9.05481 0.70306C9.36631 -0.234352 10.6337 -0.234354 10.9452 0.703057L12.7123 6.02071C12.8497 6.43424 13.2186 6.71463 13.6371 6.72355L19.0179 6.83825C19.9665 6.85847 20.3581 8.11931 19.6021 8.71888L15.3133 12.1201C14.9798 12.3846 14.8389 12.8382 14.9601 13.2573L16.5186 18.6458C16.7933 19.5957 15.768 20.375 14.9892 19.8081L10.5716 16.5925C10.228 16.3425 9.77198 16.3425 9.42844 16.5925L5.01077 19.8081C4.23201 20.375 3.20667 19.5957 3.48141 18.6458L5.03991 13.2573C5.1611 12.8382 5.02018 12.3846 4.68666 12.1201L0.397897 8.71888C-0.358139 8.11931 0.0334998 6.85847 0.982056 6.83825L6.36293 6.72355C6.78138 6.71463 7.15032 6.43424 7.28774 6.02071L9.05481 0.70306Z" fill="#D8D8D8"/>
</g>
<defs>
<clipPath id="clip0_2003_13488">
<rect width="20" height="20" fill="white"/>
</clipPath>
</defs>
</svg>
